<?xml version="1.0" encoding="UTF-8" standalone="no"?>
<!DOCTYPE svg PUBLIC "-//W3C//DTD SVG 1.1//EN" "http://www.w3.org/Graphics/SVG/1.1/DTD/svg11.dtd">
<svg width="100%" height="100%" viewBox="0 0 444 71" version="1.1" xmlns="http://www.w3.org/2000/svg" xmlns:xlink="http://www.w3.org/1999/xlink" xml:space="preserve" xmlns:serif="http://www.serif.com/" style="fill-rule:evenodd;clip-rule:evenodd;stroke-linejoin:round;stroke-miterlimit:2;">
    <g transform="matrix(1,0,0,1,-1,0)">
        <g id="Artboard1" transform="matrix(0.888,0,0,0.142,1,0)">
            <rect x="0" y="0" width="500" height="500" style="fill:none;"/>
            <g transform="matrix(0.793383,0,0,4.96144,-21.9347,-30.7153)">
                <g transform="matrix(101.911,0,0,101.911,28,95)">
                    <path d="M0.493,-0.561C0.472,-0.578 0.45,-0.591 0.429,-0.6C0.408,-0.608 0.387,-0.612 0.367,-0.612C0.342,-0.612 0.321,-0.606 0.305,-0.594C0.289,-0.582 0.281,-0.566 0.281,-0.547C0.281,-0.534 0.285,-0.523 0.293,-0.514C0.301,-0.505 0.312,-0.498 0.325,-0.492C0.338,-0.485 0.352,-0.48 0.369,-0.475C0.385,-0.47 0.401,-0.465 0.417,-0.46C0.481,-0.439 0.528,-0.41 0.558,-0.375C0.587,-0.339 0.602,-0.292 0.602,-0.235C0.602,-0.196 0.596,-0.161 0.583,-0.13C0.57,-0.099 0.551,-0.072 0.526,-0.05C0.501,-0.027 0.47,-0.01 0.434,0.003C0.397,0.015 0.356,0.021 0.31,0.021C0.215,0.021 0.126,-0.007 0.045,-0.064L0.129,-0.222C0.158,-0.196 0.187,-0.177 0.216,-0.164C0.245,-0.151 0.273,-0.145 0.301,-0.145C0.333,-0.145 0.357,-0.152 0.373,-0.167C0.388,-0.182 0.396,-0.198 0.396,-0.217C0.396,-0.228 0.394,-0.238 0.39,-0.247C0.386,-0.255 0.379,-0.263 0.37,-0.27C0.361,-0.277 0.349,-0.283 0.334,-0.289C0.319,-0.295 0.3,-0.302 0.279,-0.309C0.254,-0.317 0.229,-0.326 0.205,-0.336C0.18,-0.345 0.159,-0.358 0.14,-0.374C0.121,-0.39 0.105,-0.41 0.094,-0.435C0.082,-0.459 0.076,-0.49 0.076,-0.527C0.076,-0.564 0.082,-0.598 0.095,-0.629C0.107,-0.659 0.124,-0.685 0.147,-0.707C0.169,-0.728 0.196,-0.745 0.229,-0.757C0.261,-0.769 0.297,-0.775 0.337,-0.775C0.374,-0.775 0.413,-0.77 0.454,-0.76C0.495,-0.749 0.534,-0.734 0.571,-0.714L0.493,-0.561Z" style="fill:rgb(250,250,250);fill-rule:nonzero;"/>
                </g>
                <g transform="matrix(101.911,0,0,101.911,93.8348,95)">
                    <path d="M0.275,-0.408L0.34,-0.408C0.412,-0.408 0.448,-0.439 0.448,-0.502C0.448,-0.565 0.412,-0.596 0.34,-0.596L0.275,-0.596L0.275,-0.408ZM0.275,-0L0.079,-0L0.079,-0.754L0.391,-0.754C0.476,-0.754 0.541,-0.732 0.586,-0.688C0.631,-0.644 0.653,-0.582 0.653,-0.502C0.653,-0.422 0.631,-0.36 0.586,-0.316C0.541,-0.272 0.476,-0.25 0.391,-0.25L0.275,-0.25L0.275,-0Z" style="fill:rgb(250,250,250);fill-rule:nonzero;"/>
                </g>
                <g transform="matrix(101.911,0,0,101.911,158.65,95)">
                    <path d="M0.489,-0.28L0.401,-0.531L0.313,-0.28L0.489,-0.28ZM0.541,-0.131L0.261,-0.131L0.216,-0L0.007,-0L0.294,-0.754L0.508,-0.754L0.795,-0L0.586,-0L0.541,-0.131Z" style="fill:rgb(250,250,250);fill-rule:nonzero;"/>
                </g>
                <g transform="matrix(101.911,0,0,101.911,237.53,95)">
                    <path d="M0.622,-0.502C0.577,-0.557 0.521,-0.585 0.454,-0.585C0.425,-0.585 0.398,-0.58 0.373,-0.569C0.347,-0.558 0.326,-0.544 0.308,-0.526C0.29,-0.507 0.276,-0.485 0.266,-0.46C0.255,-0.435 0.25,-0.407 0.25,-0.378C0.25,-0.348 0.255,-0.32 0.266,-0.295C0.276,-0.27 0.29,-0.248 0.309,-0.229C0.327,-0.21 0.348,-0.196 0.373,-0.185C0.398,-0.174 0.424,-0.169 0.453,-0.169C0.516,-0.169 0.572,-0.196 0.622,-0.249L0.622,-0.017L0.602,-0.01C0.572,0.001 0.544,0.009 0.518,0.014C0.492,0.019 0.466,0.021 0.441,0.021C0.389,0.021 0.339,0.011 0.292,-0.009C0.244,-0.028 0.202,-0.056 0.166,-0.092C0.129,-0.127 0.1,-0.169 0.078,-0.219C0.056,-0.268 0.045,-0.321 0.045,-0.379C0.045,-0.437 0.056,-0.49 0.078,-0.539C0.099,-0.587 0.128,-0.628 0.165,-0.664C0.201,-0.699 0.243,-0.726 0.291,-0.746C0.339,-0.765 0.389,-0.775 0.442,-0.775C0.472,-0.775 0.501,-0.772 0.531,-0.766C0.56,-0.759 0.59,-0.749 0.622,-0.736L0.622,-0.502Z" style="fill:rgb(250,250,250);fill-rule:nonzero;"/>
                </g>
                <g transform="matrix(101.911,0,0,101.911,305.505,95)">
                    <path d="M0.508,-0.588L0.275,-0.588L0.275,-0.462L0.495,-0.462L0.495,-0.296L0.275,-0.296L0.275,-0.166L0.508,-0.166L0.508,-0L0.079,-0L0.079,-0.754L0.508,-0.754L0.508,-0.588Z" style="fill:rgb(250,250,250);fill-rule:nonzero;"/>
                </g>
                <g transform="matrix(101.911,0,0,101.911,363.594,95)">
                    <path d="M0.275,-0.166L0.32,-0.166C0.354,-0.166 0.384,-0.171 0.411,-0.182C0.438,-0.193 0.46,-0.207 0.479,-0.226C0.497,-0.245 0.511,-0.267 0.521,-0.293C0.53,-0.318 0.535,-0.346 0.535,-0.377C0.535,-0.407 0.53,-0.435 0.52,-0.461C0.51,-0.487 0.496,-0.509 0.478,-0.528C0.459,-0.547 0.437,-0.561 0.41,-0.572C0.383,-0.583 0.353,-0.588 0.32,-0.588L0.275,-0.588L0.275,-0.166ZM0.079,-0.754L0.369,-0.754C0.42,-0.754 0.468,-0.744 0.514,-0.723C0.559,-0.702 0.598,-0.675 0.632,-0.641C0.665,-0.606 0.692,-0.566 0.711,-0.521C0.73,-0.475 0.74,-0.427 0.74,-0.377C0.74,-0.328 0.731,-0.28 0.712,-0.235C0.693,-0.189 0.666,-0.149 0.633,-0.114C0.599,-0.079 0.56,-0.052 0.515,-0.031C0.47,-0.01 0.421,-0 0.369,-0L0.079,-0L0.079,-0.754Z" style="fill:rgb(115,193,54);fill-rule:nonzero;"/>
                </g>
                <g transform="matrix(101.911,0,0,101.911,443.697,95)">
                    <path d="M0.508,-0.588L0.275,-0.588L0.275,-0.462L0.495,-0.462L0.495,-0.296L0.275,-0.296L0.275,-0.166L0.508,-0.166L0.508,-0L0.079,-0L0.079,-0.754L0.508,-0.754L0.508,-0.588Z" style="fill:rgb(115,193,54);fill-rule:nonzero;"/>
                </g>
                <g transform="matrix(101.911,0,0,101.911,501.786,95)">
                    <path d="M0.622,-0.502C0.577,-0.557 0.521,-0.585 0.454,-0.585C0.425,-0.585 0.398,-0.58 0.373,-0.569C0.347,-0.558 0.326,-0.544 0.308,-0.526C0.29,-0.507 0.276,-0.485 0.266,-0.46C0.255,-0.435 0.25,-0.407 0.25,-0.378C0.25,-0.348 0.255,-0.32 0.266,-0.295C0.276,-0.27 0.29,-0.248 0.309,-0.229C0.327,-0.21 0.348,-0.196 0.373,-0.185C0.398,-0.174 0.424,-0.169 0.453,-0.169C0.516,-0.169 0.572,-0.196 0.622,-0.249L0.622,-0.017L0.602,-0.01C0.572,0.001 0.544,0.009 0.518,0.014C0.492,0.019 0.466,0.021 0.441,0.021C0.389,0.021 0.339,0.011 0.292,-0.009C0.244,-0.028 0.202,-0.056 0.166,-0.092C0.129,-0.127 0.1,-0.169 0.078,-0.219C0.056,-0.268 0.045,-0.321 0.045,-0.379C0.045,-0.437 0.056,-0.49 0.078,-0.539C0.099,-0.587 0.128,-0.628 0.165,-0.664C0.201,-0.699 0.243,-0.726 0.291,-0.746C0.339,-0.765 0.389,-0.775 0.442,-0.775C0.472,-0.775 0.501,-0.772 0.531,-0.766C0.56,-0.759 0.59,-0.749 0.622,-0.736L0.622,-0.502Z" style="fill:rgb(115,193,54);fill-rule:nonzero;"/>
                </g>
                <g transform="matrix(101.911,0,0,101.911,573.022,95)">
                    <path d="M0.275,-0.443L0.514,-0.754L0.756,-0.754L0.457,-0.397L0.784,-0L0.53,-0L0.275,-0.327L0.275,-0L0.079,-0L0.079,-0.754L0.275,-0.754L0.275,-0.443Z" style="fill:rgb(115,193,54);fill-rule:nonzero;"/>
                </g>
            </g>
        </g>
    </g>
</svg>
