<?xml version="1.0" encoding="UTF-8" standalone="no"?>
<!DOCTYPE svg PUBLIC "-//W3C//DTD SVG 1.1//EN" "http://www.w3.org/Graphics/SVG/1.1/DTD/svg11.dtd">
<svg width="100%" height="100%" viewBox="0 0 59 59" version="1.1" xmlns="http://www.w3.org/2000/svg" xmlns:xlink="http://www.w3.org/1999/xlink" xml:space="preserve" xmlns:serif="http://www.serif.com/" style="fill-rule:evenodd;clip-rule:evenodd;stroke-linejoin:round;stroke-miterlimit:2;">
    <g transform="matrix(1,0,0,1,-80,-89)">
        <g id="Artboard2" transform="matrix(1,0,0,1,-0.54152,0)">
            <rect x="80.542" y="89" width="59" height="59" style="fill:none;"/>
            <g transform="matrix(1.0444,0,0,1.0444,-7.44685,-6.21106)">
                <path d="M108.373,103.773L108.373,113.012L96.923,119.431L108.373,125.894L108.373,135.046L87.12,123.248L87.12,115.528L108.373,103.773Z" style="fill:url(#_Linear1);fill-rule:nonzero;"/>
                <path d="M116.614,135.046L116.614,125.807L128.022,119.388L116.614,112.925L116.614,103.773L137.867,115.528L137.867,123.292L116.614,135.046Z" style="fill:url(#_Linear2);fill-rule:nonzero;"/>
            </g>
        </g>
    </g>
    <defs>
        <linearGradient id="_Linear1" x1="0" y1="0" x2="1" y2="0" gradientUnits="userSpaceOnUse" gradientTransform="matrix(50.747,0,0,31.2723,87.1205,119.41)"><stop offset="0" style="stop-color:rgb(132,221,54);stop-opacity:1"/><stop offset="1" style="stop-color:rgb(115,193,54);stop-opacity:1"/></linearGradient>
        <linearGradient id="_Linear2" x1="0" y1="0" x2="1" y2="0" gradientUnits="userSpaceOnUse" gradientTransform="matrix(50.747,0,0,31.2723,87.1205,119.41)"><stop offset="0" style="stop-color:rgb(132,221,54);stop-opacity:1"/><stop offset="1" style="stop-color:rgb(115,193,54);stop-opacity:1"/></linearGradient>
    </defs>
</svg>
